<svg width="32.000000" height="32.000000" viewBox="0 0 32 32" fill="none" xmlns="http://www.w3.org/2000/svg" xmlns:xlink="http://www.w3.org/1999/xlink">
	<desc>
			Created with Pixso.
	</desc>
	<defs>
		<clipPath id="clip1_1056">
			<rect id="cart" rx="0.000000" width="31.000000" height="31.000000" transform="translate(0.500000 0.500000)" fill="white" fill-opacity="0"/>
		</clipPath>
	</defs>
	<rect id="cart" rx="0.000000" width="31.000000" height="31.000000" transform="translate(0.500000 0.500000)" fill="#FFFFFF" fill-opacity="0"/>
	<g clip-path="url(#clip1_1056)">
		<path id="Vector" d="M29.98 24.76L28.2 9.76C28.14 9.27 27.9 8.82 27.54 8.5C27.17 8.17 26.69 7.99 26.2 8L22 8C22 6.4 21.36 4.88 20.24 3.75C19.11 2.63 17.59 2 16 2C14.4 2 12.88 2.63 11.75 3.75C10.63 4.88 10 6.4 10 8L5.79 8C5.29 7.99 4.82 8.17 4.45 8.5C4.08 8.82 3.84 9.27 3.79 9.76L2 24.76C1.97 25.04 2 25.32 2.08 25.59C2.17 25.86 2.31 26.11 2.5 26.32C2.68 26.53 2.91 26.7 3.17 26.82C3.43 26.93 3.71 26.99 4 27L27.99 27C28.27 27 28.55 26.94 28.81 26.82C29.07 26.7 29.31 26.53 29.5 26.32C29.68 26.11 29.82 25.86 29.9 25.59C29.99 25.32 30.01 25.04 29.98 24.76ZM16 4C17.06 4 18.07 4.42 18.82 5.17C19.57 5.92 20 6.93 20 8L12 8C12 6.93 12.42 5.92 13.17 5.17C13.92 4.42 14.93 4 16 4ZM4 25L5.79 10L10 10L10 13C10 13.26 10.1 13.51 10.29 13.7C10.48 13.89 10.73 14 11 14C11.26 14 11.51 13.89 11.7 13.7C11.89 13.51 12 13.26 12 13L12 10L20 10L20 13C20 13.26 20.1 13.51 20.29 13.7C20.48 13.89 20.73 14 21 14C21.26 14 21.51 13.89 21.7 13.7C21.89 13.51 22 13.26 22 13L22 10L26.21 10L27.99 25L4 25Z" fill="#287279" fill-opacity="1.000000" fill-rule="nonzero"/>
	</g>
</svg>
